<svg width="37" height="37" viewBox="0 0 37 37" fill="none" xmlns="http://www.w3.org/2000/svg">
<path d="M3 34H5.2L27.35 11.85L25.15 9.65001L3 31.8V34ZM33.7 9.70001L27.3 3.30001L29.4 1.20001C29.9667 0.633339 30.6667 0.350006 31.5 0.350006C32.3333 0.350006 33.0333 0.633339 33.6 1.20001L35.8 3.40001C36.3667 3.96667 36.65 4.66667 36.65 5.50001C36.65 6.33334 36.3667 7.03334 35.8 7.60001L33.7 9.70001ZM31.6 11.8L6.4 37H0V30.6L25.2 5.40001L31.6 11.8ZM26.25 10.75L25.15 9.65001L27.35 11.85L26.25 10.75Z" fill="white"/>
</svg>
